PathFileType	4	(X/Y/Z)	/Users/niels/Desktop/University/Third Semester/Perception and Action/Exam/Gymnastics Motion Tracking/Code for Gym Tracking/Analyzed Data/Webcam_Backflip/id8_4_pure_Sports2D/id8_4_pure_Sports2D_px_person00.trc
DataRate	CameraRate	NumFrames	NumMarkers	Units	OrigDataRate	OrigDataStartFrame	OrigNumFrames
29.81132075471698	29.81132075471698	11	22	m	29.81132075471698	39	159
Frame#	Time	Hip			RHip			RKnee			RAnkle			RBigToe			RSmallToe			RHeel			LHip			LKnee			LAnkle			LBigToe			LSmallToe			LHeel			Neck			Head			Nose			RShoulder			RElbow			RWrist			LShoulder			LElbow			LWrist		
		X1	Y1	Z1	X2	Y2	Z2	X3	Y3	Z3	X4	Y4	Z4	X5	Y5	Z5	X6	Y6	Z6	X7	Y7	Z7	X8	Y8	Z8	X9	Y9	Z9	X10	Y10	Z10	X11	Y11	Z11	X12	Y12	Z12	X13	Y13	Z13	X14	Y14	Z14	X15	Y15	Z15	X16	Y16	Z16	X17	Y17	Z17	X18	Y18	Z18	X19	Y19	Z19	X20	Y20	Z20	X21	Y21	Z21	X22	Y22	Z22
39	1.3082278481012657	0.9395062755594201	-0.31167235502575785	0.0	0.933543155476959	-0.31328891985862944	0.0	0.8762235298075512	-0.3962631270569365	0.0	0.8459087535801135	-0.3308124371079202	0.0	0.8213753783216068	-0.3466599947439093	0.0	0.8227718078808725	-0.3425772289425879	0.0	0.8409975109005255	-0.3188392837070138	0.0	0.9424526059356351	-0.314633748428045	0.0	0.8846525826331646	-0.3828933258630923	0.0	0.8652656635289948	-0.329038123640956	0.0	0.8514561305709807	-0.3609180140510318	0.0	0.8465475661664594	-0.3600326717543039	0.0	0.8497017448815394	-0.3124861029564186	0.0	0.9855128319364207	-0.4177086775426272	0.0	1.0168413221078665	-0.45638442640519244	0.0	0.9868050887145781	-0.4533581059222586	0.0	0.9735009782279899	-0.402851036090781	0.0	0.9237129384625031	-0.37226344647989734	0.0	0.9068180472100406	-0.3961909603343826	0.0	0.9868901130693507	-0.4073382184596723	0.0	0.9528754391888297	-0.3868724043086348	0.0	0.9231177403547566	-0.40549087785622423	0.0
40	1.3417721518987342	0.9241814706837365	-0.32492626911680683	0.0	0.9174260010930873	-0.3267976729935189	0.0	0.880836180876783	-0.42846258156078376	0.0	0.8248520249053003	-0.3877652062880476	0.0	0.8068930264693738	-0.417453108829658	0.0	0.8048473293055629	-0.41094440610250554	0.0	0.8188796854533584	-0.376635320180751	0.0	0.9284357105249155	-0.32794656838744457	0.0	0.8880430155976248	-0.4145471970273143	0.0	0.8506049745405011	-0.3867231421836351	0.0	0.8591634746832677	-0.41844629920774545	0.0	0.8483518541339599	-0.41632191420102693	0.0	0.825156997304966	-0.37106794398455	0.0	1.0007416249840049	-0.4124391054289254	0.0	1.0448642324548845	-0.44282466889354916	0.0	1.0132628613870018	-0.44791280951230955	0.0	0.9860503821183778	-0.40088995295664936	0.0	0.9297212922248561	-0.3908861534857041	0.0	0.9161232877698168	-0.43040906736047996	0.0	0.999536782107091	-0.4036257194949286	0.0	0.9618704418947758	-0.4058077494052459	0.0	0.9382931020019726	-0.43815692630944647	0.0
41	1.3753164556962025	0.9105363902266201	-0.3475284110918696	0.0	0.9035504521107318	-0.34902154407047864	0.0	0.8858356763448081	-0.4605247550610229	0.0	0.8159593897863187	-0.45390496044964374	0.0	0.8088806587143317	-0.49281834175795525	0.0	0.8037047270544305	-0.4862095615916149	0.0	0.8077211341578094	-0.4459288381817974	0.0	0.9154133992674729	-0.35036742341187466	0.0	0.8911362805014023	-0.44830198041837543	0.0	0.8443848681790153	-0.4525338563603156	0.0	0.878817809788243	-0.4829432533997082	0.0	0.8610831998182944	-0.48012177240928194	0.0	0.8123434282406714	-0.4410456172047854	0.0	1.009526758630731	-0.4073441089739034	0.0	1.0627663897764499	-0.42685080800402164	0.0	1.0315017606100754	-0.43910356173744464	0.0	0.9928962049583816	-0.39896618913459925	0.0	0.9401399339140573	-0.409661000690028	0.0	0.932705984178562	-0.45998443756065144	0.0	1.0059221805965126	-0.40072759185947304	0.0	0.9732278275524047	-0.42449086070417913	0.0	0.960868340065577	-0.46669623932131027	0.0
42	1.4088607594936708	0.8997761710804734	-0.37866887584542747	0.0	0.8932765037846303	-0.37943821233005154	0.0	0.8895654468605093	-0.4941629489242592	0.0	0.8188149125515606	-0.5238414293161344	0.0	0.8238961317699399	-0.5664522310290238	0.0	0.8164383448982113	-0.5613585505274932	0.0	0.8083002831408118	-0.5206691440357776	0.0	0.90452145656796	-0.3811142974557836	0.0	0.8927270723276977	-0.4849788634176867	0.0	0.8437862822178227	-0.5214276774368383	0.0	0.8985507177736067	-0.5500629639262165	0.0	0.8751042958293688	-0.5471097529186373	0.0	0.8110485313934948	-0.516056021928393	0.0	1.0113749568436747	-0.4048418144432715	0.0	1.0703494830172755	-0.4124309182085845	0.0	1.0405295274460253	-0.4303879686767985	0.0	0.9936029030654651	-0.39947031714042985	0.0	0.9540952950678122	-0.4268655790550448	0.0	0.9554265721766881	-0.4813509803203911	0.0	1.0060614015478677	-0.4006349308303974	0.0	0.9863838169995172	-0.44068311850464864	0.0	0.9885414202777331	-0.48715318785676537	0.0
43	1.4424050632911392	0.892483446608037	-0.4169942138773418	0.0	0.8871201950661723	-0.4170526847824825	0.0	0.891977374378595	-0.5310669620742506	0.0	0.8303411671028414	-0.592496776475173	0.0	0.8457875175552008	-0.6340746404885385	0.0	0.8371492748037734	-0.6311859371873377	0.0	0.8182982572334483	-0.5946985520023518	0.0	0.8964631244503659	-0.418793152938177	0.0	0.8930887892692772	-0.5251539008699794	0.0	0.8474475482385366	-0.5889814858201968	0.0	0.9102842130449111	-0.6161092911402669	0.0	0.8847423596283156	-0.6132860354269802	0.0	0.8187998777893717	-0.5899928611504992	0.0	1.0065156634102566	-0.407101014123581	0.0	1.0680602708140983	-0.40268563162407506	0.0	1.0405395254002858	-0.4248490551683654	0.0	0.9885228305930563	-0.4047847343716373	0.0	0.9693791287489572	-0.44141221339480324	0.0	0.9814514305661163	-0.4925636266002681	0.0	1.0003878801133026	-0.40512868204533026	0.0	0.998686198222174	-0.452623250456933	0.0	1.0162421285303231	-0.49657343189349334	0.0
44	1.4759493670886075	0.8887685048486995	-0.46075130534906317	0.0	0.8848863120963121	-0.46032976068707376	0.0	0.893895285377562	-0.5716619483756146	0.0	0.8459067259913705	-0.6559959945591203	0.0	0.8680622378026536	-0.6935038971233984	0.0	0.859169098458177	-0.6928329052228653	0.0	0.8332580844607023	-0.6630927192612	0.0	0.8915999098896007	-0.4616245814151638	0.0	0.89336836437721	-0.568383702699055	0.0	0.8545772518798491	-0.6516861477135809	0.0	0.9135223907030289	-0.6777531841198999	0.0	0.8902194078608786	-0.6751197782212708	0.0	0.8316339895538732	-0.6581400034335534	0.0	0.9959074630953866	-0.415765652127875	0.0	1.056717032145471	-0.39947182965185296	0.0	1.0325303882071144	-0.4246975183215357	0.0	0.9786755849318504	-0.4166360881064308	0.0	0.9829665653544081	-0.45300792481432434	0.0	1.006155854512314	-0.4933094405747825	0.0	0.9897224626083417	-0.41575015805236354	0.0	1.0066363779040886	-0.46014456245331664	0.0	1.0375912765836826	-0.4945596550763184	0.0
45	1.5094936708860758	0.8882483996907363	-0.5075861331160226	0.0	0.885822964865704	-0.5069943358594735	0.0	0.8961842508059932	-0.6147181706156876	0.0	0.8608879796901773	-0.7117972762150265	0.0	0.88594436457708	-0.7439404698302137	0.0	0.8772403745134878	-0.745161901122409	0.0	0.8484094754264485	-0.7225309360136215	0.0	0.8898343286767384	-0.5073646062235406	0.0	0.8946237889847478	-0.6130132009436833	0.0	0.863213355118379	-0.7070461577139867	0.0	0.9118334657819049	-0.7320164398287248	0.0	0.8933936528611133	-0.7297264532492936	0.0	0.8452994047545291	-0.717318519453717	0.0	0.981248424897148	-0.4315035816141403	0.0	1.0377817296549985	-0.40356325054265674	0.0	1.018141353977273	-0.4311565384724415	0.0	0.965670858035145	-0.43544716700544295	0.0	0.9917042066885968	-0.46199619137667997	0.0	1.0239475413687702	-0.48510767105072283	0.0	0.9753781023265741	-0.43313303237042283	0.0	1.0075809927953228	-0.46478960521561236	0.0	1.047245734572863	-0.4838523518104801	0.0
46	1.5430379746835443	0.8900494564273835	-0.554417647816879	0.0	0.8887745171081174	-0.5539384322024535	0.0	0.8992563550947417	-0.6575693304731766	0.0	0.872040532593933	-0.7583292732821678	0.0	0.8973201041618796	-0.7851229968367162	0.0	0.8887799032117245	-0.7877771648999792	0.0	0.8602622956470104	-0.7710197023260397	0.0	0.8905363447390137	-0.5531419208181397	0.0	0.8972777977290817	-0.6564412979955363	0.0	0.8708706491559671	-0.7535237169935524	0.0	0.9082365063389711	-0.7768747737291111	0.0	0.8948590986158681	-0.7752624596647403	0.0	0.8565271733749089	-0.7656580512826157	0.0	0.9647588678894071	-0.4535046868408886	0.0	1.0138068914355063	-0.41469832544375684	0.0	0.9997158862921837	-0.44420539014677923	0.0	0.9514618282270252	-0.4598906366407068	0.0	0.9932804797323661	-0.4691728109642281	0.0	1.0301728872869635	-0.4714269371853362	0.0	0.9592034317396131	-0.4562743536514972	0.0	1.0007848298681605	-0.4688977264982937	0.0	1.0429869697735386	-0.46938783413361185	0.0
47	1.5765822784810126	0.892984877052143	-0.5976269607093466	0.0	0.8924152788582528	-0.5973719516846193	0.0	0.9030572108432279	-0.6966172203292874	0.0	0.8782336125007787	-0.7945253343273871	0.0	0.9024512105684196	-0.8167819877257007	0.0	0.8938550315954586	-0.8203439027860112	0.0	0.8674143473293828	-0.8074715381291334	0.0	0.892704283775603	-0.5954751097042715	0.0	0.9011493250674978	-0.6954489242199545	0.0	0.8759618529339774	-0.7901120788607049	0.0	0.9039183683227529	-0.8113466175519025	0.0	0.894485389995989	-0.8108203922654129	0.0	0.8638266526059097	-0.8021964909031584	0.0	0.9486820599839688	-0.4791701021530527	0.0	0.9884431212103079	-0.43119901035314057	0.0	0.9802112453889591	-0.4621487477653873	0.0	0.937873898177532	-0.48679836066408716	0.0	0.9872942164000844	-0.47525959533727913	0.0	1.0233773096229712	-0.4566021417059284	0.0	0.9433234551218044	-0.4823377517173314	0.0	0.9876463351266036	-0.47417407574374276	0.0	1.0264807663453273	-0.4560339838091716	0.0
48	1.610126582278481	0.8958512822873151	-0.6334066209952302	0.0	0.8955932163725291	-0.6332266962010752	0.0	0.9073579462804267	-0.7280135607980384	0.0	0.880238483724844	-0.8196017127892556	0.0	0.9029634926748974	-0.8385521770587554	0.0	0.8942057052440394	-0.8424877209226778	0.0	0.8703764490597553	-0.8314714882439488	0.0	0.8951877381896578	-0.6305152391861814	0.0	0.9058157105045288	-0.7265742645391896	0.0	0.8783220712582372	-0.8159293111202266	0.0	0.8992978851329952	-0.8350692347624487	0.0	0.8924681151038489	-0.8359621137678133	0.0	0.8674417349318123	-0.8265484336181159	0.0	0.934778605093312	-0.5043095235956115	0.0	0.9657298928648402	-0.44963227920141	0.0	0.9626282403617297	-0.48148977353763256	0.0	0.9262593433110398	-0.5117039032217666	0.0	0.9757691357199317	-0.48002075411637185	0.0	1.006473547392679	-0.4436773100507179	0.0	0.9295332382736903	-0.5070539809499641	0.0	0.971164754953982	-0.48042387508344764	0.0	1.0024538860464252	-0.44618854450807766	0.0
49	1.6436708860759492	0.8977569734236085	-0.6582435688159424	0.0	0.8976526595931414	-0.6578318100389361	0.0	0.91195695878863	-0.7484787117265715	0.0	0.8797640361810698	-0.8332002795955439	0.0	0.9008737669633979	-0.8502450892004121	0.0	0.8921010937491415	-0.8541130641291006	0.0	0.8706159726912012	-0.8433488348980396	0.0	0.8969559031449255	-0.6546351647472415	0.0	0.9108921706259151	-0.7467124776183638	0.0	0.8788345225091039	-0.830326142127206	0.0	0.895098741298069	-0.8480103489577345	0.0	0.8897297457111351	-0.8504227951453092	0.0	0.8685816349297508	-0.8389081086952026	0.0	0.9240330709715584	-0.5240532509378463	0.0	0.9487171993820459	-0.4651834042463426	0.0	0.9490397557334047	-0.4975366162964956	0.0	0.9173917424088089	-0.5300226348109139	0.0	0.9623661812804283	-0.48197106775995335	0.0	0.9855404777838616	-0.43301359165430287	0.0	0.9187518920565219	-0.5257260733418339	0.0	0.9547616547530122	-0.4853455438220476	0.0	0.9768129535335145	-0.4389408480410674	0.0
